<?xml version="1.0" encoding="UTF-8" standalone="no"?>
<svg width="77px" height="50px" viewBox="0 0 77 50" version="1.1" xmlns="http://www.w3.org/2000/svg" xmlns:xlink="http://www.w3.org/1999/xlink">
    <!-- Generator: Sketch 3.7.2 (28276) - http://www.bohemiancoding.com/sketch -->
    <title>ac-logo-white</title>
    <desc>Created with Sketch.</desc>
    <defs></defs>
    <g id="Page-1" stroke="none" stroke-width="1" fill="none" fill-rule="evenodd">
        <g id="Artboard" fill="#FFFFFF">
            <g id="ac-logo-white">
                <path d="M57.5247525,29.7029703 C56.1881188,31.2376238 54.2079208,32.1782178 51.980198,32.1782178 C47.8712871,32.1782178 44.5544554,28.8613861 44.5544554,24.7524752 C44.5544554,20.6435644 47.8712871,17.3267327 51.980198,17.3267327 C54.1584158,17.3267327 56.1386139,18.2673267 57.5247525,19.8019802 L76.2376238,19.8019802 C73.960396,8.51485149 63.960396,0 51.980198,0 C42.970297,0 35.0990099,4.8019802 30.7425743,12.029703 L49.4059406,49.4059406 C50.2475248,49.5049505 51.0891089,49.5544554 51.9306931,49.5544554 C63.9108911,49.5544554 73.9108911,41.039604 76.1881188,29.7524752 L57.5247525,29.7524752 L57.5247525,29.7029703 Z" id="letter-c"></path>
                <polygon id="letter-a" points="32.5742574 39.6039604 27.5742574 29.7029703 21.8811881 29.7029703 30.7425743 11.980198 24.7524752 0 0 49.5049505 11.980198 49.5049505 16.9306931 39.6039604"></polygon>
            </g>
        </g>
    </g>
</svg>