<?xml version="1.0" encoding="utf-8"?>
<!-- Generator: Adobe Illustrator 19.1.0, SVG Export Plug-In . SVG Version: 6.00 Build 0)  -->
<svg version="1.1" id="Layer_1" xmlns="http://www.w3.org/2000/svg" xmlns:xlink="http://www.w3.org/1999/xlink" x="0px" y="0px"
	 viewBox="0 0 210.7 504.5" style="enable-background:new 0 0 210.7 504.5;" xml:space="preserve">
<polygon style="fill:#FF4B3E;" points="0,165.9 0,123.3 36.9,102 73.7,123.3 73.7,165.9 36.9,187.1 "/>
<polygon style="opacity:0.3;fill:#FF4B3E;" points="36.9,163 0,184.3 37.5,206.1 73.7,184.3 "/>
<polygon style="fill:#FF4B3E;" points="137,275.9 137,233.3 173.9,212 210.7,233.3 210.7,275.9 173.9,297.1 "/>
<polygon style="opacity:0.3;fill:#FF4B3E;" points="173.9,346 137,367.3 174.5,389.1 210.7,367.3 "/>
<polygon style="fill:#F6F8FA;" points="103.9,212 31,254.1 105.1,297.2 176.7,254.1 "/>
<polygon style="fill:#FF4B3E;" points="135,63.9 135,21.3 171.9,0 208.7,21.3 208.7,63.9 171.9,85.1 "/>
<polygon style="opacity:0.3;fill:#FF4B3E;" points="171.9,61 135,82.3 172.5,104.1 208.7,82.3 "/>
<polygon style="fill:#FF4B3E;" points="57,451.8 57,395.9 105.4,368 153.7,395.9 153.7,451.8 105.4,479.7 "/>
<polygon style="opacity:0.22;fill:#FF4B3E;" points="105.4,368 57,395.9 106.2,424.5 153.7,395.9 "/>
<polygon style="opacity:0.22;fill:#FF4B3E;" points="105.4,448 57,475.9 106.2,504.5 153.7,475.9 "/>
</svg>
