<?xml version="1.0" encoding="UTF-8" standalone="no"?>
<svg width="37px" height="36px" viewBox="0 0 37 36" version="1.1" xmlns="http://www.w3.org/2000/svg" xmlns:xlink="http://www.w3.org/1999/xlink">
  <g id="Desktop-HD-Copy-3" transform="translate(-1026.000000, -2203.000000)" fill="#000000">
    <path d="M1044.45383,2203 C1034.26389,2203 1026,2211.26276 1026,2221.4561 C1026,2229.61009 1031.28758,2236.52688 1038.6213,2238.96729 C1039.54467,2239.13724 1039.88116,2238.56736 1039.88116,2238.07791 C1039.88116,2237.64059 1039.8653,2236.47929 1039.85623,2234.93958 C1034.72274,2236.05443 1033.63962,2232.46517 1033.63962,2232.46517 C1032.80009,2230.33292 1031.59008,2229.7653 1031.59008,2229.7653 C1029.91441,2228.621 1031.71697,2228.64366 1031.71697,2228.64366 C1033.56938,2228.77396 1034.54373,2230.54592 1034.54373,2230.54592 C1036.18994,2233.36589 1038.86375,2232.55128 1039.91515,2232.07883 C1040.08283,2230.88695 1040.55981,2230.07347 1041.08664,2229.61235 C1036.98868,2229.1467 1032.68,2227.56281 1032.68,2220.49081 C1032.68,2218.47638 1033.39943,2216.82791 1034.57999,2215.53859 C1034.38965,2215.07181 1033.75632,2213.19447 1034.76126,2210.65435 C1034.76126,2210.65435 1036.31004,2210.15811 1039.83584,2212.54641 C1041.30757,2212.13628 1042.88693,2211.93234 1044.4561,2211.92441 C1046.02413,2211.93234 1047.60236,2212.13628 1049.07635,2212.54641 C1052.59989,2210.15811 1054.1464,2210.65435 1054.1464,2210.65435 C1055.15361,2213.19447 1054.52028,2215.07181 1054.33107,2215.53859 C1055.51389,2216.82791 1056.22766,2218.47638 1056.22766,2220.49081 C1056.22766,2227.58094 1051.91218,2229.14104 1047.80176,2229.59763 C1048.46341,2230.16751 1049.05369,2231.29368 1049.05369,2233.0158 C1049.05369,2235.48228 1049.03103,2237.47291 1049.03103,2238.07791 C1049.03103,2238.57189 1049.36413,2239.1463 1050.29996,2238.96616 C1057.62802,2236.52008 1062.91106,2229.60782 1062.91106,2221.4561 C1062.91106,2211.26276 1054.64717,2203 1044.45383,2203" id="github-logo"></path>
  </g>
</svg>