<?xml version="1.0" encoding="UTF-8" standalone="no"?>
<svg width="43px" height="36px" viewBox="0 0 43 36" version="1.1" xmlns="http://www.w3.org/2000/svg" xmlns:xlink="http://www.w3.org/1999/xlink">
    <!-- Generator: Sketch 3.7.2 (28276) - http://www.bohemiancoding.com/sketch -->
    <title>medium-logo</title>
    <desc>Created with Sketch.</desc>
    <defs></defs>
    <g id="Page-1" stroke="none" stroke-width="1" fill="none" fill-rule="evenodd">
        <g id="Desktop-HD-Copy-3" transform="translate(-1147.000000, -2203.000000)" fill="#000000">
            <path d="M1189.40453,2209.58702 C1189.39641,2209.58052 1189.3899,2209.57198 1189.37974,2209.56711 L1189.36511,2209.55979 L1176.5341,2203.14428 C1176.44753,2203.10079 1176.35648,2203.07153 1176.26423,2203.04796 C1176.14839,2203.01829 1176.03012,2203 1175.91144,2203 C1175.42007,2203 1174.93113,2203.2467 1174.66614,2203.67671 L1167.27926,2215.68104 L1176.54954,2230.74499 L1189.44396,2209.79186 C1189.48663,2209.72196 1189.46631,2209.63579 1189.40453,2209.58702 Z M1163.21049,2212.94658 L1163.21049,2226.61118 L1175.35626,2232.68407 L1163.21049,2212.94658 Z M1177.18113,2233.5965 L1187.17892,2238.5952 C1188.4799,2239.24589 1189.53459,2238.79028 1189.53459,2237.57831 L1189.53459,2213.52208 L1177.18113,2233.5965 Z M1161.10192,2209.60653 L1148.57045,2203.34059 C1148.34407,2203.2276 1148.12866,2203.17395 1147.93357,2203.17395 C1147.38489,2203.17395 1147,2203.59867 1147,2204.31115 L1147,2231.36723 C1147,2232.09149 1147.52999,2232.94906 1148.17784,2233.27299 L1159.21527,2238.7915 C1159.49815,2238.93294 1159.76761,2239 1160.01106,2239 C1160.69712,2239 1161.17833,2238.4692 1161.17833,2237.57831 L1161.17833,2209.72968 C1161.17833,2209.67766 1161.14866,2209.6297 1161.10192,2209.60653 Z" id="medium-logo"></path>
        </g>
    </g>
</svg>