<?xml version="1.0" encoding="utf-8"?>
<!-- Generator: Adobe Illustrator 19.1.0, SVG Export Plug-In . SVG Version: 6.00 Build 0)  -->
<svg version="1.1" id="Layer_1" xmlns="http://www.w3.org/2000/svg" xmlns:xlink="http://www.w3.org/1999/xlink" x="0px" y="0px"
	 viewBox="-173.1 374.7 259.3 45.6" style="enable-background:new -173.1 374.7 259.3 45.6;" xml:space="preserve">
<g>
	<path style="fill:#F37621;" d="M-130.8,388.6l-2.7-4c-0.4-0.6-1.3-1.5-2-1.9l-12.5-7c-0.7-0.4-1.9-0.7-2.6-0.8l-4.7-0.2h-0.1h-0.1
		l-14.9,8.6l-0.1,0.1v0.1l-2,4.1c-0.3,0.7-0.6,1.9-0.6,2.7v14.5c0,0.8,0.3,2,0.6,2.7l2,4.1l14.9,8.7h0.1h0.1h0.2h0.2l4.6-0.3
		c0.8-0.1,2-0.4,2.6-0.8l12.3-7.3c0.7-0.4,1.6-1.2,2-1.9l2.5-4l0.1-0.1l0.1-0.1l0.1-17.1L-130.8,388.6z M-149.7,376.6
		c0.6,0,1.5,0.3,2.1,0.7l10.4,6.1c0.6,0.3,1,0.6,1.4,1.1l1.7,2.5l-0.3-0.1l-9.6-3.9l-8.5-6.4H-149.7z M-155.5,376.2l9.9,7.5
		l-7.1,12.6h-14.4l-1.8-12.4L-155.5,376.2z M-171.3,405.6c-0.3-0.6-0.5-1.5-0.5-2.2l-0.2-12c0-0.6,0.2-1.6,0.5-2.2l1.3-2.3l1.5,10.5
		l0,0l-1.3,10.4L-171.3,405.6z M-155.5,418.6l-13.2-7.6l1.7-12.6l14.4-0.1l7,12.6L-155.5,418.6z M-135.4,410
		c-0.4,0.5-1.1,1.2-1.6,1.5l-10.3,5.8c-0.5,0.3-1.4,0.7-2.1,0.8l-2.8-0.2l8.2-6.4l9.7-4.1L-135.4,410z M-143.9,409.8l-7.1-12.5
		l7-12.5l11.7,4.8v15.3L-143.9,409.8z"/>
	<path style="fill:#F37621;" d="M-136,391.5l-7.3-2.9c-0.1,0-0.3,0-0.4,0.2c0,0.1,0,0.1,0,0.2c0,0.1,0.1,0.1,0.1,0.1l6.1,3.5
		l1.1,9.7c0,0.1,0.1,0.3,0.3,0.3l0,0c0.2,0,0.3-0.1,0.3-0.3L-136,391.5L-136,391.5z"/>
	<path style="fill:#F37621;" d="M-149.5,409.7c-0.1-0.1-0.3-0.1-0.4-0.1l-6.1,3.8l-9.3-4.5c-0.1-0.1-0.3,0-0.4,0.1
		c-0.1,0.1,0,0.3,0.1,0.4l9.6,5.5l0.2,0.1l6.3-5c0.1,0,0.1-0.1,0.1-0.2C-149.4,409.8-149.5,409.8-149.5,409.7z"/>
	<path style="fill:#F37621;" d="M-163,393.9L-163,393.9c0.2,0,0.3-0.2,0.3-0.3l-0.2-8l8.5-5.8c0.1-0.1,0.2-0.2,0.1-0.4
		c-0.1-0.1-0.2-0.2-0.4-0.1l-9.9,5.6h-0.1l1.3,8.8C-163.3,393.8-163.2,393.9-163,393.9z"/>
</g>
<g>
	<path style="fill:#F37621;" d="M-100,400.5c2.7-0.7,5.2-2.9,5.2-6.8c0-4.3-3.1-7.2-7.5-7.2h-9.4v23.1h4.1V401h3.2l5.5,8.6h4.9
		L-100,400.5z M-107.7,390.3h5c2.2,0,3.6,1.4,3.6,3.4c0,2.1-1.5,3.4-3.6,3.4h-5V390.3z"/>
	<path style="fill:#F37621;" d="M-79.6,386.5v15.8c0,2.4-1.4,3.8-3.6,3.8c-1.4,0-2.5-0.6-3.5-1.9l-0.6-0.8l-2.3,3.3l0.4,0.4
		c1.6,1.9,3.6,2.8,6.2,2.8c4.7,0,7.6-2.9,7.6-7.6v-15.8H-79.6z"/>
	<polygon style="fill:#F37621;" points="-46.9,386.5 -47.6,386.5 -48.8,386.5 -56.3,404.7 -63.8,386.5 -64.9,386.5 -65.6,386.5 
		-66.6,386.5 -66.6,409.6 -64.1,409.6 -64.1,392.1 -56.9,409.6 -55.6,409.6 -48.4,392.1 -48.4,409.6 -45.9,409.6 -45.9,386.5 	"/>
	<polygon style="fill:#F37621;" points="-22.1,388.9 -22.1,386.5 -36.8,386.5 -36.8,409.6 -22.1,409.6 -22.1,407.2 -34.3,407.2 
		-34.3,398.9 -22.3,398.9 -22.3,396.5 -34.3,396.5 -34.3,388.9 	"/>
	<polygon style="fill:#F37621;" points="-15.4,386.5 -15.4,388.9 -8.1,388.9 -8.1,409.6 -5.6,409.6 -5.6,388.9 1.7,388.9 1.7,386.5 
			"/>
	<path style="fill:#F37621;" d="M18.7,400.1c3.5-0.5,5.8-3.2,5.8-6.8c0-4-2.9-6.9-7.1-6.9H9.2v23.1h2.5v-9.3h4.1l6.6,9.3h3.1
		L18.7,400.1z M11.7,388.9h5.7c2.7,0,4.5,1.8,4.5,4.4c0,2.7-1.8,4.5-4.5,4.5h-5.7V388.9z"/>
	<rect x="32.9" y="386.5" style="fill:#F37621;" width="2.5" height="23.1"/>
	<path style="fill:#F37621;" d="M61.9,404.1l-0.5,0.6c-1.4,1.8-3.7,2.9-6.2,2.9c-5.2,0-8.9-4-8.9-9.5s3.8-9.5,8.9-9.5
		c2.4,0,4.7,1.1,6.2,2.9l0.5,0.6l1.9-1.7l-0.5-0.5c-2.1-2.4-4.9-3.7-8.1-3.7c-6.6,0-11.5,5.1-11.5,11.9c0,6.8,5,11.9,11.5,11.9
		c3.3,0,5.9-1.2,8.1-3.7l0.5-0.6L61.9,404.1z"/>
	<path style="fill:#F37621;" d="M78.5,396.3c-3.4-1-5.4-1.7-5.4-3.9c0-2.2,2.1-3.8,4.9-3.8c2.4,0,4.3,0.9,5.6,2.5l0.5,0.6L86,390
		l-0.4-0.5c-1.8-2.2-4.4-3.3-7.6-3.3c-3.7,0-7.5,2.1-7.5,6.2c0,4.3,3.8,5.4,7.2,6.3c3.7,1.1,6,1.9,6,4.7c0,1-0.4,4.2-5.5,4.2
		c-3.3,0-5.3-1.8-6.2-2.9l-0.5-0.6l-1.9,1.7l0.4,0.5c1.9,2.4,4.8,3.7,8.1,3.7c6,0,8.1-3.6,8.1-6.6C86.2,398.5,81.9,397.3,78.5,396.3
		z"/>
</g>
<path style="fill:#F37621;" d="M-131.2,388.7L-131.2,388.7L-131.2,388.7z"/>
</svg>
