<?xml version="1.0" encoding="UTF-8" standalone="no"?>
<svg width="45px" height="36px" viewBox="0 0 45 36" version="1.1" xmlns="http://www.w3.org/2000/svg" xmlns:xlink="http://www.w3.org/1999/xlink">
    <!-- Generator: Sketch 3.7.2 (28276) - http://www.bohemiancoding.com/sketch -->
    <title>twitter-logo</title>
    <desc>Created with Sketch.</desc>
    <defs></defs>
    <g id="Page-1" stroke="none" stroke-width="1" fill="none" fill-rule="evenodd">
        <g id="Desktop-HD-Copy-3" transform="translate(-1083.000000, -2203.000000)" fill="#000000">
            <path d="M1122.76565,2211.96148 C1122.78491,2212.35152 1122.79213,2212.74639 1122.79213,2213.13644 C1122.79213,2225.15088 1113.65008,2239 1096.93339,2239 C1091.79775,2239 1087.02327,2237.49518 1083,2234.91413 C1083.71268,2234.99839 1084.43499,2235.04173 1085.16693,2235.04173 C1089.42857,2235.04173 1093.34591,2233.58748 1096.45425,2231.15329 C1092.47913,2231.07865 1089.12039,2228.45425 1087.96469,2224.8427 C1088.51846,2224.94623 1089.08909,2225.00161 1089.67416,2225.00161 C1090.50482,2225.00161 1091.30899,2224.89326 1092.06982,2224.6862 C1087.91172,2223.84831 1084.77929,2220.17657 1084.77929,2215.77047 L1084.77929,2215.6573 C1086.00482,2216.33868 1087.40851,2216.74799 1088.89647,2216.79615 C1086.45746,2215.16372 1084.85152,2212.38523 1084.85152,2209.22873 C1084.85152,2207.56501 1085.29936,2206.00241 1086.08427,2204.65891 C1090.56501,2210.16051 1097.26565,2213.77689 1104.81862,2214.1573 C1104.66453,2213.49037 1104.58507,2212.79936 1104.58507,2212.08427 C1104.58507,2207.06661 1108.65169,2203 1113.67175,2203 C1116.28652,2203 1118.64848,2204.10032 1120.30738,2205.86758 C1122.3756,2205.45827 1124.32103,2204.70225 1126.07865,2203.66212 C1125.39968,2205.78331 1123.95746,2207.56501 1122.08186,2208.68941 C1123.92135,2208.4679 1125.66934,2207.98395 1127.30177,2207.25923 C1126.08347,2209.08427 1124.54254,2210.68299 1122.76565,2211.96148 L1122.76565,2211.96148 Z" id="twitter-logo"></path>
        </g>
    </g>
</svg>